<?xml version="1.0" encoding="utf-8"?>
<!-- Generator: Adobe Illustrator 23.0.6, SVG Export Plug-In . SVG Version: 6.00 Build 0)  -->
<svg version="1.1" id="Layer_1" xmlns="http://www.w3.org/2000/svg" xmlns:xlink="http://www.w3.org/1999/xlink" x="0px" y="0px"
	 viewBox="0 0 400 400" style="enable-background:new 0 0 400 400;" xml:space="preserve">
<style type="text/css">
	.st0{fill:#FF871D;}
</style>
<g>
	<path class="st0" d="M200.2,169.1c81.7-46.7,156.4-58.4,177.4-24.1c24.6,40.1-34.2,128.3-131.2,196.8
		c-31.9,22.5-63.9,40.1-93.5,52.2c42.6-34.6,83-76.1,112.4-117.6c62.5-88.4,50.9-143.1-25.9-122.2
		C227.1,157.5,214,162.6,200.2,169.1z"/>
	<path class="st0" d="M165.5,177.8C84.9,129.3,37.5,69.4,56.3,33.9c22-41.7,126.5-34.1,233.5,16.9c35.2,16.8,66.2,36.1,91.3,56.1
		c-50.8-20.2-106.4-35-156.5-40C117.9,56.2,77,93.7,133.3,150.8C142.2,159.9,153.1,168.9,165.5,177.8z"/>
	<path class="st0" d="M190,200.8c-1,95.2-28.4,166.7-68.1,168c-46.5,1.5-92.3-94.2-102.3-213.8c-3.3-39.3-2.3-76.3,2.2-108.3
		c8.2,54.7,23.4,111.1,44.1,157.6c44.2,99.2,96.6,116.3,117.2,38.3C186.4,230.2,188.7,216.1,190,200.8z"/>
</g>
</svg>
